<svg width="402" height="180" viewBox="0 0 402 180" fill="none" xmlns="http://www.w3.org/2000/svg">
<path d="M266.457 113.86C270.983 113.86 274.88 114.677 278.147 116.31C281.46 117.897 283.98 120.16 285.707 123.1C287.48 125.993 288.367 129.4 288.367 133.32C288.367 134.673 288.203 136.377 287.877 138.43C287.037 143.237 285.217 147.507 282.417 151.24C279.663 154.973 276.14 157.867 271.847 159.92C267.6 161.973 262.91 163 257.777 163H239.367L248.047 113.86H266.457ZM258.827 152.78C263.353 152.78 267.11 151.52 270.097 149C273.083 146.48 274.95 142.957 275.697 138.43C275.93 137.03 276.047 135.863 276.047 134.93C276.047 131.477 274.997 128.817 272.897 126.95C270.797 125.037 267.81 124.08 263.937 124.08H258.197L253.157 152.78H258.827ZM335.656 123.94L328.796 163H316.826L317.736 157.68C316.196 159.407 314.306 160.807 312.066 161.88C309.873 162.907 307.516 163.42 304.996 163.42C301.076 163.42 297.996 162.323 295.756 160.13C293.516 157.89 292.396 154.787 292.396 150.82C292.396 149.327 292.513 147.973 292.746 146.76L296.806 123.94H308.706L304.996 145.15C304.856 145.897 304.786 146.62 304.786 147.32C304.786 149.28 305.323 150.797 306.396 151.87C307.516 152.897 309.056 153.41 311.016 153.41C313.256 153.41 315.146 152.757 316.686 151.45C318.273 150.097 319.323 148.183 319.836 145.71L323.686 123.94H335.656ZM361.754 123.38C366.794 123.38 370.784 124.757 373.724 127.51C376.711 130.217 378.204 133.927 378.204 138.64C378.204 140.18 378.087 141.557 377.854 142.77C377.667 143.843 377.387 144.987 377.014 146.2H349.924C349.877 146.48 349.854 146.923 349.854 147.53C349.854 149.583 350.414 151.147 351.534 152.22C352.654 153.293 354.147 153.83 356.014 153.83C359.001 153.83 361.287 152.57 362.874 150.05H375.614C373.934 154.017 371.204 157.26 367.424 159.78C363.644 162.3 359.397 163.56 354.684 163.56C349.644 163.56 345.607 162.16 342.574 159.36C339.587 156.56 338.094 152.757 338.094 147.95C338.094 146.503 338.234 145.01 338.514 143.47C339.214 139.41 340.661 135.863 342.854 132.83C345.047 129.797 347.777 127.463 351.044 125.83C354.311 124.197 357.881 123.38 361.754 123.38ZM366.094 140.11C366.187 139.457 366.234 139.013 366.234 138.78C366.234 136.913 365.651 135.49 364.484 134.51C363.317 133.483 361.777 132.97 359.864 132.97C357.811 132.97 355.991 133.6 354.404 134.86C352.864 136.073 351.744 137.823 351.044 140.11H366.094ZM401.669 111.2L392.499 163H380.529L389.699 111.2H401.669Z" fill="#EBEBEB"/>
<path fill-rule="evenodd" clip-rule="evenodd" d="M9.00374e-07 133L234 133L232.213 143L0 143L9.00374e-07 133Z" fill="#EBEBEB"/>
<path d="M306 20C306 8.9543 314.954 0 326 0H382C393.046 0 402 8.9543 402 20V76C402 87.0457 393.046 96 382 96H326C314.954 96 306 87.0457 306 76V20Z" fill="#029347"/>
<path d="M341.559 46.6C336.859 44.1 334.509 40.175 334.509 34.825C334.509 32.125 335.209 29.675 336.609 27.475C338.009 25.225 340.134 23.45 342.984 22.15C345.834 20.8 349.334 20.125 353.484 20.125C357.634 20.125 361.109 20.8 363.909 22.15C366.759 23.45 368.884 25.225 370.284 27.475C371.684 29.675 372.384 32.125 372.384 34.825C372.384 37.525 371.734 39.875 370.434 41.875C369.184 43.875 367.484 45.45 365.334 46.6C368.034 47.9 370.109 49.7 371.559 52C373.009 54.25 373.734 56.9 373.734 59.95C373.734 63.5 372.834 66.575 371.034 69.175C369.234 71.725 366.784 73.675 363.684 75.025C360.634 76.375 357.234 77.05 353.484 77.05C349.734 77.05 346.309 76.375 343.209 75.025C340.159 73.675 337.734 71.725 335.934 69.175C334.134 66.575 333.234 63.5 333.234 59.95C333.234 56.85 333.959 54.175 335.409 51.925C336.859 49.625 338.909 47.85 341.559 46.6ZM359.934 36.775C359.934 34.725 359.334 33.15 358.134 32.05C356.984 30.9 355.434 30.325 353.484 30.325C351.534 30.325 349.959 30.9 348.759 32.05C347.609 33.2 347.034 34.8 347.034 36.85C347.034 38.8 347.634 40.35 348.834 41.5C350.034 42.6 351.584 43.15 353.484 43.15C355.384 43.15 356.934 42.575 358.134 41.425C359.334 40.275 359.934 38.725 359.934 36.775ZM353.484 52.15C351.134 52.15 349.234 52.8 347.784 54.1C346.334 55.35 345.609 57.1 345.609 59.35C345.609 61.45 346.309 63.175 347.709 64.525C349.159 65.875 351.084 66.55 353.484 66.55C355.884 66.55 357.759 65.875 359.109 64.525C360.509 63.175 361.209 61.45 361.209 59.35C361.209 57.15 360.484 55.4 359.034 54.1C357.634 52.8 355.784 52.15 353.484 52.15Z" fill="#EBEBEB"/>
<path d="M204 20C204 8.9543 212.954 0 224 0H280C291.046 0 300 8.9543 300 20V76C300 87.0457 291.046 96 280 96H224C212.954 96 204 87.0457 204 76V20Z" fill="#7D32ED"/>
<path d="M230.297 66.25V55.9L253.997 22H268.322V55.15H274.472V66.25H268.322V76H255.497V66.25H230.297ZM256.397 36.1L243.797 55.15H256.397V36.1Z" fill="#EBEBEB"/>
<path d="M102 20C102 8.9543 110.954 0 122 0H178C189.046 0 198 8.9543 198 20V76C198 87.0457 189.046 96 178 96H122C110.954 96 102 87.0457 102 76V20Z" fill="#029347"/>
<path d="M128.912 47.875C128.912 39.275 130.562 32.5 133.862 27.55C137.212 22.6 142.587 20.125 149.987 20.125C157.387 20.125 162.737 22.6 166.037 27.55C169.387 32.5 171.062 39.275 171.062 47.875C171.062 56.575 169.387 63.4 166.037 68.35C162.737 73.3 157.387 75.775 149.987 75.775C142.587 75.775 137.212 73.3 133.862 68.35C130.562 63.4 128.912 56.575 128.912 47.875ZM158.462 47.875C158.462 42.825 157.912 38.95 156.812 36.25C155.712 33.5 153.437 32.125 149.987 32.125C146.537 32.125 144.262 33.5 143.162 36.25C142.062 38.95 141.512 42.825 141.512 47.875C141.512 51.275 141.712 54.1 142.112 56.35C142.512 58.55 143.312 60.35 144.512 61.75C145.762 63.1 147.587 63.775 149.987 63.775C152.387 63.775 154.187 63.1 155.387 61.75C156.637 60.35 157.462 58.55 157.862 56.35C158.262 54.1 158.462 51.275 158.462 47.875Z" fill="#EBEBEB"/>
<path d="M0 20C0 8.9543 8.9543 0 20 0H76C87.0457 0 96 8.9543 96 20V76C96 87.0457 87.0457 96 76 96H20C8.9543 96 0 87.0457 0 76V20Z" fill="#7D32ED"/>
<path d="M29.5017 65.725C31.2017 64.375 31.9767 63.75 31.8267 63.85C36.7267 59.8 40.5767 56.475 43.3767 53.875C46.2267 51.275 48.6267 48.55 50.5767 45.7C52.5267 42.85 53.5017 40.075 53.5017 37.375C53.5017 35.325 53.0267 33.725 52.0767 32.575C51.1267 31.425 49.7017 30.85 47.8017 30.85C45.9017 30.85 44.4017 31.575 43.3017 33.025C42.2517 34.425 41.7267 36.425 41.7267 39.025H29.3517C29.4517 34.775 30.3517 31.225 32.0517 28.375C33.8017 25.525 36.0767 23.425 38.8767 22.075C41.7267 20.725 44.8767 20.05 48.3267 20.05C54.2767 20.05 58.7517 21.575 61.7517 24.625C64.8017 27.675 66.3267 31.65 66.3267 36.55C66.3267 41.9 64.5017 46.875 60.8517 51.475C57.2017 56.025 52.5517 60.475 46.9017 64.825H67.1517V75.25H29.5017V65.725Z" fill="#EBEBEB"/>
</svg>
