<svg width="402" height="168" viewBox="0 0 402 168" fill="none" xmlns="http://www.w3.org/2000/svg">
<path d="M3.99 154.815C4.31 154.425 4.715 154.11 5.205 153.87C5.695 153.63 6.23 153.51 6.81 153.51C7.71 153.51 8.435 153.805 8.985 154.395C9.545 154.975 9.825 155.77 9.825 156.78C9.825 157.1 9.795 157.44 9.735 157.8C9.585 158.66 9.29 159.42 8.85 160.08C8.41 160.73 7.88 161.235 7.26 161.595C6.64 161.945 5.985 162.12 5.295 162.12C4.705 162.12 4.21 162.005 3.81 161.775C3.41 161.535 3.12 161.22 2.94 160.83L2.73 162H0.165L2.13 150.9H4.695L3.99 154.815ZM7.14 157.8C7.17 157.63 7.185 157.475 7.185 157.335C7.185 156.835 7.04 156.445 6.75 156.165C6.47 155.885 6.11 155.745 5.67 155.745C5.16 155.745 4.695 155.93 4.275 156.3C3.855 156.67 3.585 157.175 3.465 157.815C3.435 157.995 3.42 158.16 3.42 158.31C3.42 158.8 3.56 159.185 3.84 159.465C4.12 159.745 4.48 159.885 4.92 159.885C5.43 159.885 5.895 159.7 6.315 159.33C6.745 158.95 7.02 158.44 7.14 157.8ZM13.7357 153.63L14.7557 158.865L17.6057 153.63H20.3807L12.9557 165.975H10.1957L12.8657 161.715L10.8857 153.63H13.7357ZM31.7549 151.47L30.4949 158.64C30.2949 159.75 29.8299 160.605 29.0999 161.205C28.3699 161.805 27.4749 162.105 26.4149 162.105C25.4549 162.105 24.6949 161.865 24.1349 161.385C23.5849 160.905 23.3099 160.215 23.3099 159.315C23.3099 159.005 23.3349 158.725 23.3849 158.475H25.9349C25.9049 158.635 25.8899 158.78 25.8899 158.91C25.8899 159.21 25.9649 159.435 26.1149 159.585C26.2649 159.735 26.4749 159.81 26.7449 159.81C27.0549 159.81 27.3099 159.715 27.5099 159.525C27.7199 159.325 27.8599 159.03 27.9299 158.64L29.1899 151.47H31.7549ZM37.1868 153.51C38.2668 153.51 39.1218 153.805 39.7518 154.395C40.3918 154.975 40.7118 155.77 40.7118 156.78C40.7118 157.11 40.6868 157.405 40.6368 157.665C40.5968 157.895 40.5368 158.14 40.4568 158.4H34.6518C34.6418 158.46 34.6368 158.555 34.6368 158.685C34.6368 159.125 34.7568 159.46 34.9968 159.69C35.2368 159.92 35.5568 160.035 35.9568 160.035C36.5968 160.035 37.0868 159.765 37.4268 159.225H40.1568C39.7968 160.075 39.2118 160.77 38.4018 161.31C37.5918 161.85 36.6818 162.12 35.6718 162.12C34.5918 162.12 33.7268 161.82 33.0768 161.22C32.4368 160.62 32.1168 159.805 32.1168 158.775C32.1168 158.465 32.1468 158.145 32.2068 157.815C32.3568 156.945 32.6668 156.185 33.1368 155.535C33.6068 154.885 34.1918 154.385 34.8918 154.035C35.5918 153.685 36.3568 153.51 37.1868 153.51ZM38.1168 157.095C38.1368 156.955 38.1468 156.86 38.1468 156.81C38.1468 156.41 38.0218 156.105 37.7718 155.895C37.5218 155.675 37.1918 155.565 36.7818 155.565C36.3418 155.565 35.9518 155.7 35.6118 155.97C35.2818 156.23 35.0418 156.605 34.8918 157.095H38.1168ZM44.9749 155.145C45.3649 154.645 45.8099 154.255 46.3099 153.975C46.8199 153.685 47.3499 153.54 47.8999 153.54L47.4199 156.255H46.7149C46.0749 156.255 45.5699 156.395 45.1999 156.675C44.8299 156.945 44.5849 157.425 44.4649 158.115L43.7749 162H41.2099L42.6799 153.63H45.2449L44.9749 155.145ZM51.3909 155.145C51.7809 154.645 52.2259 154.255 52.7259 153.975C53.2359 153.685 53.7659 153.54 54.3159 153.54L53.8359 156.255H53.1309C52.4909 156.255 51.9859 156.395 51.6159 156.675C51.2459 156.945 51.0009 157.425 50.8809 158.115L50.1909 162H47.6259L49.0959 153.63H51.6609L51.3909 155.145ZM57.432 153.63L58.452 158.865L61.302 153.63H64.077L56.652 165.975H53.892L56.562 161.715L54.582 153.63H57.432ZM72.9462 156.63L76.2312 162H73.0962L70.3812 157.35L69.5562 162H66.9912L68.8512 151.47H71.4162L70.6062 156.09L74.9412 151.47H77.9412L72.9462 156.63ZM87.1852 153.63L85.7152 162H83.1502L83.3452 160.86C83.0152 161.23 82.6102 161.53 82.1302 161.76C81.6602 161.98 81.1552 162.09 80.6152 162.09C79.7752 162.09 79.1152 161.855 78.6352 161.385C78.1552 160.905 77.9152 160.24 77.9152 159.39C77.9152 159.07 77.9402 158.78 77.9902 158.52L78.8602 153.63H81.4102L80.6152 158.175C80.5852 158.335 80.5702 158.49 80.5702 158.64C80.5702 159.06 80.6852 159.385 80.9152 159.615C81.1552 159.835 81.4852 159.945 81.9052 159.945C82.3852 159.945 82.7902 159.805 83.1202 159.525C83.4602 159.235 83.6852 158.825 83.7952 158.295L84.6202 153.63H87.1852ZM91.3226 155.145C91.7126 154.645 92.1576 154.255 92.6576 153.975C93.1676 153.685 93.6976 153.54 94.2476 153.54L93.7676 156.255H93.0626C92.4226 156.255 91.9176 156.395 91.5476 156.675C91.1776 156.945 90.9326 157.425 90.8126 158.115L90.1226 162H87.5576L89.0276 153.63H91.5926L91.3226 155.145ZM97.4536 159.12C97.4436 159.17 97.4386 159.235 97.4386 159.315C97.4386 159.495 97.4886 159.625 97.5886 159.705C97.6986 159.785 97.8736 159.825 98.1136 159.825H99.0286L98.6386 162H97.3336C95.6536 162 94.8136 161.295 94.8136 159.885C94.8136 159.675 94.8386 159.41 94.8886 159.09L95.4886 155.76H94.4686L94.8436 153.63H95.8636L96.2236 151.59H98.7886L98.4286 153.63H100.109L99.7336 155.76H98.0536L97.4536 159.12ZM102.992 152.76C102.592 152.76 102.272 152.655 102.032 152.445C101.802 152.225 101.687 151.95 101.687 151.62C101.687 151.17 101.862 150.785 102.212 150.465C102.562 150.145 102.987 149.985 103.487 149.985C103.887 149.985 104.202 150.095 104.432 150.315C104.662 150.525 104.777 150.8 104.777 151.14C104.777 151.58 104.602 151.96 104.252 152.28C103.902 152.6 103.482 152.76 102.992 152.76ZM104.102 153.63L102.632 162H100.067L101.537 153.63H104.102ZM111.076 153.54C111.916 153.54 112.576 153.775 113.056 154.245C113.536 154.715 113.776 155.37 113.776 156.21C113.776 156.49 113.746 156.79 113.686 157.11L112.816 162H110.266L111.076 157.455C111.106 157.285 111.121 157.135 111.121 157.005C111.121 156.585 111.001 156.26 110.761 156.03C110.531 155.8 110.206 155.685 109.786 155.685C109.286 155.685 108.866 155.84 108.526 156.15C108.186 156.46 107.966 156.895 107.866 157.455V157.38L107.056 162H104.491L105.961 153.63H108.526L108.331 154.755C108.661 154.385 109.061 154.09 109.531 153.87C110.011 153.65 110.526 153.54 111.076 153.54Z" fill="#EBEBEB"/>
<path d="M266.457 113.86C270.983 113.86 274.88 114.677 278.147 116.31C281.46 117.897 283.98 120.16 285.707 123.1C287.48 125.993 288.367 129.4 288.367 133.32C288.367 134.673 288.203 136.377 287.877 138.43C287.037 143.237 285.217 147.507 282.417 151.24C279.663 154.973 276.14 157.867 271.847 159.92C267.6 161.973 262.91 163 257.777 163H239.367L248.047 113.86H266.457ZM258.827 152.78C263.353 152.78 267.11 151.52 270.097 149C273.083 146.48 274.95 142.957 275.697 138.43C275.93 137.03 276.047 135.863 276.047 134.93C276.047 131.477 274.997 128.817 272.897 126.95C270.797 125.037 267.81 124.08 263.937 124.08H258.197L253.157 152.78H258.827ZM335.656 123.94L328.796 163H316.826L317.736 157.68C316.196 159.407 314.306 160.807 312.066 161.88C309.873 162.907 307.516 163.42 304.996 163.42C301.076 163.42 297.996 162.323 295.756 160.13C293.516 157.89 292.396 154.787 292.396 150.82C292.396 149.327 292.513 147.973 292.746 146.76L296.806 123.94H308.706L304.996 145.15C304.856 145.897 304.786 146.62 304.786 147.32C304.786 149.28 305.323 150.797 306.396 151.87C307.516 152.897 309.056 153.41 311.016 153.41C313.256 153.41 315.146 152.757 316.686 151.45C318.273 150.097 319.323 148.183 319.836 145.71L323.686 123.94H335.656ZM361.754 123.38C366.794 123.38 370.784 124.757 373.724 127.51C376.711 130.217 378.204 133.927 378.204 138.64C378.204 140.18 378.087 141.557 377.854 142.77C377.667 143.843 377.387 144.987 377.014 146.2H349.924C349.877 146.48 349.854 146.923 349.854 147.53C349.854 149.583 350.414 151.147 351.534 152.22C352.654 153.293 354.147 153.83 356.014 153.83C359.001 153.83 361.287 152.57 362.874 150.05H375.614C373.934 154.017 371.204 157.26 367.424 159.78C363.644 162.3 359.397 163.56 354.684 163.56C349.644 163.56 345.607 162.16 342.574 159.36C339.587 156.56 338.094 152.757 338.094 147.95C338.094 146.503 338.234 145.01 338.514 143.47C339.214 139.41 340.661 135.863 342.854 132.83C345.047 129.797 347.777 127.463 351.044 125.83C354.311 124.197 357.881 123.38 361.754 123.38ZM366.094 140.11C366.187 139.457 366.234 139.013 366.234 138.78C366.234 136.913 365.651 135.49 364.484 134.51C363.317 133.483 361.777 132.97 359.864 132.97C357.811 132.97 355.991 133.6 354.404 134.86C352.864 136.073 351.744 137.823 351.044 140.11H366.094ZM401.669 111.2L392.499 163H380.529L389.699 111.2H401.669Z" fill="#EBEBEB"/>
<path fill-rule="evenodd" clip-rule="evenodd" d="M9.00374e-07 133L234 133L232.213 143L0 143L9.00374e-07 133Z" fill="#EBEBEB"/>
<path d="M306 20C306 8.9543 314.954 0 326 0H382C393.046 0 402 8.9543 402 20V76C402 87.0457 393.046 96 382 96H326C314.954 96 306 87.0457 306 76V20Z" fill="#029347"/>
<path d="M341.559 46.6C336.859 44.1 334.509 40.175 334.509 34.825C334.509 32.125 335.209 29.675 336.609 27.475C338.009 25.225 340.134 23.45 342.984 22.15C345.834 20.8 349.334 20.125 353.484 20.125C357.634 20.125 361.109 20.8 363.909 22.15C366.759 23.45 368.884 25.225 370.284 27.475C371.684 29.675 372.384 32.125 372.384 34.825C372.384 37.525 371.734 39.875 370.434 41.875C369.184 43.875 367.484 45.45 365.334 46.6C368.034 47.9 370.109 49.7 371.559 52C373.009 54.25 373.734 56.9 373.734 59.95C373.734 63.5 372.834 66.575 371.034 69.175C369.234 71.725 366.784 73.675 363.684 75.025C360.634 76.375 357.234 77.05 353.484 77.05C349.734 77.05 346.309 76.375 343.209 75.025C340.159 73.675 337.734 71.725 335.934 69.175C334.134 66.575 333.234 63.5 333.234 59.95C333.234 56.85 333.959 54.175 335.409 51.925C336.859 49.625 338.909 47.85 341.559 46.6ZM359.934 36.775C359.934 34.725 359.334 33.15 358.134 32.05C356.984 30.9 355.434 30.325 353.484 30.325C351.534 30.325 349.959 30.9 348.759 32.05C347.609 33.2 347.034 34.8 347.034 36.85C347.034 38.8 347.634 40.35 348.834 41.5C350.034 42.6 351.584 43.15 353.484 43.15C355.384 43.15 356.934 42.575 358.134 41.425C359.334 40.275 359.934 38.725 359.934 36.775ZM353.484 52.15C351.134 52.15 349.234 52.8 347.784 54.1C346.334 55.35 345.609 57.1 345.609 59.35C345.609 61.45 346.309 63.175 347.709 64.525C349.159 65.875 351.084 66.55 353.484 66.55C355.884 66.55 357.759 65.875 359.109 64.525C360.509 63.175 361.209 61.45 361.209 59.35C361.209 57.15 360.484 55.4 359.034 54.1C357.634 52.8 355.784 52.15 353.484 52.15Z" fill="#EBEBEB"/>
<path d="M204 20C204 8.9543 212.954 0 224 0H280C291.046 0 300 8.9543 300 20V76C300 87.0457 291.046 96 280 96H224C212.954 96 204 87.0457 204 76V20Z" fill="#7D32ED"/>
<path d="M230.297 66.25V55.9L253.997 22H268.322V55.15H274.472V66.25H268.322V76H255.497V66.25H230.297ZM256.397 36.1L243.797 55.15H256.397V36.1Z" fill="#EBEBEB"/>
<path d="M102 20C102 8.9543 110.954 0 122 0H178C189.046 0 198 8.9543 198 20V76C198 87.0457 189.046 96 178 96H122C110.954 96 102 87.0457 102 76V20Z" fill="#029347"/>
<path d="M128.912 47.875C128.912 39.275 130.562 32.5 133.862 27.55C137.212 22.6 142.587 20.125 149.987 20.125C157.387 20.125 162.737 22.6 166.037 27.55C169.387 32.5 171.062 39.275 171.062 47.875C171.062 56.575 169.387 63.4 166.037 68.35C162.737 73.3 157.387 75.775 149.987 75.775C142.587 75.775 137.212 73.3 133.862 68.35C130.562 63.4 128.912 56.575 128.912 47.875ZM158.462 47.875C158.462 42.825 157.912 38.95 156.812 36.25C155.712 33.5 153.437 32.125 149.987 32.125C146.537 32.125 144.262 33.5 143.162 36.25C142.062 38.95 141.512 42.825 141.512 47.875C141.512 51.275 141.712 54.1 142.112 56.35C142.512 58.55 143.312 60.35 144.512 61.75C145.762 63.1 147.587 63.775 149.987 63.775C152.387 63.775 154.187 63.1 155.387 61.75C156.637 60.35 157.462 58.55 157.862 56.35C158.262 54.1 158.462 51.275 158.462 47.875Z" fill="#EBEBEB"/>
<path d="M0 20C0 8.9543 8.9543 0 20 0H76C87.0457 0 96 8.9543 96 20V76C96 87.0457 87.0457 96 76 96H20C8.9543 96 0 87.0457 0 76V20Z" fill="#7D32ED"/>
<path d="M29.5017 65.725C31.2017 64.375 31.9767 63.75 31.8267 63.85C36.7267 59.8 40.5767 56.475 43.3767 53.875C46.2267 51.275 48.6267 48.55 50.5767 45.7C52.5267 42.85 53.5017 40.075 53.5017 37.375C53.5017 35.325 53.0267 33.725 52.0767 32.575C51.1267 31.425 49.7017 30.85 47.8017 30.85C45.9017 30.85 44.4017 31.575 43.3017 33.025C42.2517 34.425 41.7267 36.425 41.7267 39.025H29.3517C29.4517 34.775 30.3517 31.225 32.0517 28.375C33.8017 25.525 36.0767 23.425 38.8767 22.075C41.7267 20.725 44.8767 20.05 48.3267 20.05C54.2767 20.05 58.7517 21.575 61.7517 24.625C64.8017 27.675 66.3267 31.65 66.3267 36.55C66.3267 41.9 64.5017 46.875 60.8517 51.475C57.2017 56.025 52.5517 60.475 46.9017 64.825H67.1517V75.25H29.5017V65.725Z" fill="#EBEBEB"/>
</svg>
