<svg width="2076" height="760" viewBox="0 0 2076 760" fill="none" xmlns="http://www.w3.org/2000/svg">
<rect width="760" height="760" rx="25" fill="#7D32ED"/>
<rect x="10" y="10" width="740" height="740" rx="20" fill="#121212"/>
<rect x="40" y="40" width="200" height="200" rx="20" fill="#191919"/>
<rect x="280" y="40" width="200" height="200" rx="20" fill="#191919"/>
<rect x="520" y="40" width="200" height="200" rx="20" fill="#191919"/>
<rect x="40" y="280" width="200" height="200" rx="20" fill="#191919"/>
<rect x="280" y="280" width="200" height="200" rx="20" fill="#191919"/>
<rect x="520" y="280" width="200" height="200" rx="20" fill="#191919"/>
<rect x="40" y="520" width="200" height="200" rx="20" fill="#191919"/>
<rect x="280" y="520" width="200" height="200" rx="20" fill="#191919"/>
<rect x="520" y="520" width="200" height="200" rx="20" fill="#191919"/>
<rect x="520" y="280" width="200" height="200" rx="20" fill="#EBEBEB"/>
<rect x="520" y="280" width="200" height="200" rx="20" fill="#7D32ED"/>
<path d="M562.478 353.48V334.4H595.718V422H574.358V353.48H562.478ZM653.075 358.04C652.435 355.08 651.315 352.88 649.715 351.44C648.115 349.92 645.835 349.16 642.875 349.16C638.315 349.16 635.035 351.16 633.035 355.16C631.035 359.08 629.995 365.32 629.915 373.88C631.675 371.08 634.195 368.88 637.475 367.28C640.835 365.68 644.515 364.88 648.515 364.88C656.355 364.88 662.635 367.36 667.355 372.32C672.155 377.28 674.555 384.2 674.555 393.08C674.555 398.92 673.355 404.04 670.955 408.44C668.635 412.84 665.195 416.28 660.635 418.76C656.155 421.24 650.835 422.48 644.675 422.48C632.355 422.48 623.795 418.64 618.995 410.96C614.195 403.2 611.795 392.08 611.795 377.6C611.795 362.4 614.315 351.12 619.355 343.76C624.475 336.32 632.635 332.6 643.835 332.6C649.835 332.6 654.875 333.8 658.955 336.2C663.115 338.52 666.235 341.6 668.315 345.44C670.475 349.28 671.755 353.48 672.155 358.04H653.075ZM643.595 381.08C640.155 381.08 637.275 382.12 634.955 384.2C632.715 386.2 631.595 389.08 631.595 392.84C631.595 396.68 632.635 399.68 634.715 401.84C636.875 404 639.915 405.08 643.835 405.08C647.355 405.08 650.115 404.04 652.115 401.96C654.195 399.8 655.235 396.88 655.235 393.2C655.235 389.44 654.235 386.48 652.235 384.32C650.235 382.16 647.355 381.08 643.595 381.08Z" fill="#EBEBEB"/>
<rect x="280" y="40" width="200" height="200" rx="20" fill="#EBEBEB"/>
<rect x="280" y="40" width="200" height="200" rx="20" fill="#029347" fill-opacity="0.8"/>
<path d="M345.275 166.4V149.84L383.195 95.6H406.115V148.64H415.955V166.4H406.115V182H385.595V166.4H345.275ZM387.035 118.16L366.875 148.64H387.035V118.16Z" fill="#EBEBEB"/>
<rect x="280" y="520" width="200" height="200" rx="20" fill="#EBEBEB"/>
<rect x="280" y="520" width="200" height="200" rx="20" fill="#029347" fill-opacity="0.8"/>
<path d="M345.275 646.4V629.84L383.195 575.6H406.115V628.64H415.955V646.4H406.115V662H385.595V646.4H345.275ZM387.035 598.16L366.875 628.64H387.035V598.16Z" fill="#EBEBEB"/>
<rect x="1316" width="760" height="760" rx="25" fill="#029347"/>
<rect x="1326" y="10" width="740" height="740" rx="20" fill="#121212"/>
<rect x="1356" y="40" width="200" height="200" rx="20" fill="#191919"/>
<rect x="1596" y="40" width="200" height="200" rx="20" fill="#191919"/>
<rect x="1836" y="40" width="200" height="200" rx="20" fill="#191919"/>
<rect x="1356" y="280" width="200" height="200" rx="20" fill="#191919"/>
<rect x="1596" y="280" width="200" height="200" rx="20" fill="#191919"/>
<rect x="1836" y="280" width="200" height="200" rx="20" fill="#191919"/>
<rect x="1356" y="520" width="200" height="200" rx="20" fill="#191919"/>
<rect x="1596" y="520" width="200" height="200" rx="20" fill="#191919"/>
<rect x="1836" y="520" width="200" height="200" rx="20" fill="#191919"/>
<rect x="1836" y="520" width="200" height="200" rx="20" fill="#EBEBEB"/>
<rect x="1836" y="520" width="200" height="200" rx="20" fill="#7D32ED"/>
<path d="M1878.48 593.48V574.4H1911.72V662H1890.36V593.48H1878.48ZM1969.08 598.04C1968.44 595.08 1967.32 592.88 1965.72 591.44C1964.12 589.92 1961.84 589.16 1958.88 589.16C1954.32 589.16 1951.04 591.16 1949.04 595.16C1947.04 599.08 1946 605.32 1945.92 613.88C1947.68 611.08 1950.2 608.88 1953.48 607.28C1956.84 605.68 1960.52 604.88 1964.52 604.88C1972.36 604.88 1978.64 607.36 1983.36 612.32C1988.16 617.28 1990.56 624.2 1990.56 633.08C1990.56 638.92 1989.36 644.04 1986.96 648.44C1984.64 652.84 1981.2 656.28 1976.64 658.76C1972.16 661.24 1966.84 662.48 1960.68 662.48C1948.36 662.48 1939.8 658.64 1935 650.96C1930.2 643.2 1927.8 632.08 1927.8 617.6C1927.8 602.4 1930.32 591.12 1935.36 583.76C1940.48 576.32 1948.64 572.6 1959.84 572.6C1965.84 572.6 1970.88 573.8 1974.96 576.2C1979.12 578.52 1982.24 581.6 1984.32 585.44C1986.48 589.28 1987.76 593.48 1988.16 598.04H1969.08ZM1959.6 621.08C1956.16 621.08 1953.28 622.12 1950.96 624.2C1948.72 626.2 1947.6 629.08 1947.6 632.84C1947.6 636.68 1948.64 639.68 1950.72 641.84C1952.88 644 1955.92 645.08 1959.84 645.08C1963.36 645.08 1966.12 644.04 1968.12 641.96C1970.2 639.8 1971.24 636.88 1971.24 633.2C1971.24 629.44 1970.24 626.48 1968.24 624.32C1966.24 622.16 1963.36 621.08 1959.6 621.08Z" fill="#EBEBEB"/>
<rect x="1596" y="520" width="200" height="200" rx="20" fill="#EBEBEB"/>
<rect x="1596" y="520" width="200" height="200" rx="20" fill="#029347" fill-opacity="0.9"/>
<path d="M1676.89 614.96C1669.37 610.96 1665.61 604.68 1665.61 596.12C1665.61 591.8 1666.73 587.88 1668.97 584.36C1671.21 580.76 1674.61 577.92 1679.17 575.84C1683.73 573.68 1689.33 572.6 1695.97 572.6C1702.61 572.6 1708.17 573.68 1712.65 575.84C1717.21 577.92 1720.61 580.76 1722.85 584.36C1725.09 587.88 1726.21 591.8 1726.21 596.12C1726.21 600.44 1725.17 604.2 1723.09 607.4C1721.09 610.6 1718.37 613.12 1714.93 614.96C1719.25 617.04 1722.57 619.92 1724.89 623.6C1727.21 627.2 1728.37 631.44 1728.37 636.32C1728.37 642 1726.93 646.92 1724.05 651.08C1721.17 655.16 1717.25 658.28 1712.29 660.44C1707.41 662.6 1701.97 663.68 1695.97 663.68C1689.97 663.68 1684.49 662.6 1679.53 660.44C1674.65 658.28 1670.77 655.16 1667.89 651.08C1665.01 646.92 1663.57 642 1663.57 636.32C1663.57 631.36 1664.73 627.08 1667.05 623.48C1669.37 619.8 1672.65 616.96 1676.89 614.96ZM1706.29 599.24C1706.29 595.96 1705.33 593.44 1703.41 591.68C1701.57 589.84 1699.09 588.92 1695.97 588.92C1692.85 588.92 1690.33 589.84 1688.41 591.68C1686.57 593.52 1685.65 596.08 1685.65 599.36C1685.65 602.48 1686.61 604.96 1688.53 606.8C1690.45 608.56 1692.93 609.44 1695.97 609.44C1699.01 609.44 1701.49 608.52 1703.41 606.68C1705.33 604.84 1706.29 602.36 1706.29 599.24ZM1695.97 623.84C1692.21 623.84 1689.17 624.88 1686.85 626.96C1684.53 628.96 1683.37 631.76 1683.37 635.36C1683.37 638.72 1684.49 641.48 1686.73 643.64C1689.05 645.8 1692.13 646.88 1695.97 646.88C1699.81 646.88 1702.81 645.8 1704.97 643.64C1707.21 641.48 1708.33 638.72 1708.33 635.36C1708.33 631.84 1707.17 629.04 1704.85 626.96C1702.61 624.88 1699.65 623.84 1695.97 623.84Z" fill="#EBEBEB"/>
<path d="M1050.5 280C1050.5 273.096 1044.9 267.5 1038 267.5C1031.1 267.5 1025.5 273.096 1025.5 280H1050.5ZM1029.16 488.839C1034.04 493.72 1041.96 493.72 1046.84 488.839L1126.39 409.289C1131.27 404.408 1131.27 396.493 1126.39 391.612C1121.51 386.73 1113.59 386.73 1108.71 391.612L1038 462.322L967.289 391.612C962.408 386.73 954.493 386.73 949.612 391.612C944.73 396.493 944.73 404.408 949.612 409.289L1029.16 488.839ZM1025.5 280V480H1050.5V280H1025.5Z" fill="#EBEBEB"/>
</svg>
