<svg width="2076" height="760" viewBox="0 0 2076 760" fill="none" xmlns="http://www.w3.org/2000/svg">
<rect width="760" height="760" rx="25" fill="#7D32ED"/>
<rect x="10" y="10" width="740" height="740" rx="20" fill="#121212"/>
<rect x="40" y="40" width="200" height="200" rx="20" fill="#191919"/>
<rect x="280" y="40" width="200" height="200" rx="20" fill="#191919"/>
<rect x="520" y="40" width="200" height="200" rx="20" fill="#191919"/>
<rect x="40" y="280" width="200" height="200" rx="20" fill="#191919"/>
<rect x="280" y="280" width="200" height="200" rx="20" fill="#191919"/>
<rect x="520" y="280" width="200" height="200" rx="20" fill="#191919"/>
<rect x="40" y="520" width="200" height="200" rx="20" fill="#191919"/>
<rect x="280" y="520" width="200" height="200" rx="20" fill="#191919"/>
<rect x="520" y="520" width="200" height="200" rx="20" fill="#191919"/>
<rect x="520" y="40" width="200" height="200" rx="20" fill="#EBEBEB"/>
<rect x="520" y="40" width="200" height="200" rx="20" fill="#7D32ED"/>
<path d="M562.478 113.48V94.4H595.718V182H574.358V113.48H562.478ZM653.075 118.04C652.435 115.08 651.315 112.88 649.715 111.44C648.115 109.92 645.835 109.16 642.875 109.16C638.315 109.16 635.035 111.16 633.035 115.16C631.035 119.08 629.995 125.32 629.915 133.88C631.675 131.08 634.195 128.88 637.475 127.28C640.835 125.68 644.515 124.88 648.515 124.88C656.355 124.88 662.635 127.36 667.355 132.32C672.155 137.28 674.555 144.2 674.555 153.08C674.555 158.92 673.355 164.04 670.955 168.44C668.635 172.84 665.195 176.28 660.635 178.76C656.155 181.24 650.835 182.48 644.675 182.48C632.355 182.48 623.795 178.64 618.995 170.96C614.195 163.2 611.795 152.08 611.795 137.6C611.795 122.4 614.315 111.12 619.355 103.76C624.475 96.32 632.635 92.6 643.835 92.6C649.835 92.6 654.875 93.8 658.955 96.2C663.115 98.52 666.235 101.6 668.315 105.44C670.475 109.28 671.755 113.48 672.155 118.04H653.075ZM643.595 141.08C640.155 141.08 637.275 142.12 634.955 144.2C632.715 146.2 631.595 149.08 631.595 152.84C631.595 156.68 632.635 159.68 634.715 161.84C636.875 164 639.915 165.08 643.835 165.08C647.355 165.08 650.115 164.04 652.115 161.96C654.195 159.8 655.235 156.88 655.235 153.2C655.235 149.44 654.235 146.48 652.235 144.32C650.235 142.16 647.355 141.08 643.595 141.08Z" fill="#EBEBEB"/>
<rect x="40" y="40" width="200" height="200" rx="20" fill="#EBEBEB"/>
<rect x="40" y="40" width="200" height="200" rx="20" fill="#029347" fill-opacity="0.9"/>
<path d="M120.894 134.96C113.374 130.96 109.614 124.68 109.614 116.12C109.614 111.8 110.734 107.88 112.974 104.36C115.214 100.76 118.614 97.92 123.174 95.84C127.734 93.68 133.334 92.6 139.974 92.6C146.614 92.6 152.174 93.68 156.654 95.84C161.214 97.92 164.614 100.76 166.854 104.36C169.094 107.88 170.214 111.8 170.214 116.12C170.214 120.44 169.174 124.2 167.094 127.4C165.094 130.6 162.374 133.12 158.934 134.96C163.254 137.04 166.574 139.92 168.894 143.6C171.214 147.2 172.374 151.44 172.374 156.32C172.374 162 170.934 166.92 168.054 171.08C165.174 175.16 161.254 178.28 156.294 180.44C151.414 182.6 145.974 183.68 139.974 183.68C133.974 183.68 128.494 182.6 123.534 180.44C118.654 178.28 114.774 175.16 111.894 171.08C109.014 166.92 107.574 162 107.574 156.32C107.574 151.36 108.734 147.08 111.054 143.48C113.374 139.8 116.654 136.96 120.894 134.96ZM150.294 119.24C150.294 115.96 149.334 113.44 147.414 111.68C145.574 109.84 143.094 108.92 139.974 108.92C136.854 108.92 134.334 109.84 132.414 111.68C130.574 113.52 129.654 116.08 129.654 119.36C129.654 122.48 130.614 124.96 132.534 126.8C134.454 128.56 136.934 129.44 139.974 129.44C143.014 129.44 145.494 128.52 147.414 126.68C149.334 124.84 150.294 122.36 150.294 119.24ZM139.974 143.84C136.214 143.84 133.174 144.88 130.854 146.96C128.534 148.96 127.374 151.76 127.374 155.36C127.374 158.72 128.494 161.48 130.734 163.64C133.054 165.8 136.134 166.88 139.974 166.88C143.814 166.88 146.814 165.8 148.974 163.64C151.214 161.48 152.334 158.72 152.334 155.36C152.334 151.84 151.174 149.04 148.854 146.96C146.614 144.88 143.654 143.84 139.974 143.84Z" fill="#EBEBEB"/>
<rect x="280" y="520" width="200" height="200" rx="20" fill="#EBEBEB"/>
<rect x="280" y="520" width="200" height="200" rx="20" fill="#029347" fill-opacity="0.8"/>
<path d="M345.275 646.4V629.84L383.195 575.6H406.115V628.64H415.955V646.4H406.115V662H385.595V646.4H345.275ZM387.035 598.16L366.875 628.64H387.035V598.16Z" fill="#EBEBEB"/>
<rect x="1316" width="760" height="760" rx="25" fill="#029347"/>
<rect x="1326" y="10" width="740" height="740" rx="20" fill="#121212"/>
<rect x="1356" y="40" width="200" height="200" rx="20" fill="#191919"/>
<rect x="1596" y="40" width="200" height="200" rx="20" fill="#191919"/>
<rect x="1836" y="40" width="200" height="200" rx="20" fill="#191919"/>
<rect x="1356" y="280" width="200" height="200" rx="20" fill="#191919"/>
<rect x="1596" y="280" width="200" height="200" rx="20" fill="#191919"/>
<rect x="1836" y="280" width="200" height="200" rx="20" fill="#191919"/>
<rect x="1356" y="520" width="200" height="200" rx="20" fill="#191919"/>
<rect x="1596" y="520" width="200" height="200" rx="20" fill="#191919"/>
<rect x="1836" y="520" width="200" height="200" rx="20" fill="#191919"/>
<rect x="1836" y="40" width="200" height="200" rx="20" fill="#EBEBEB"/>
<rect x="1836" y="40" width="200" height="200" rx="20" fill="#7D32ED"/>
<path d="M1878.48 113.48V94.4H1911.72V182H1890.36V113.48H1878.48ZM1969.08 118.04C1968.44 115.08 1967.32 112.88 1965.72 111.44C1964.12 109.92 1961.84 109.16 1958.88 109.16C1954.32 109.16 1951.04 111.16 1949.04 115.16C1947.04 119.08 1946 125.32 1945.92 133.88C1947.68 131.08 1950.2 128.88 1953.48 127.28C1956.84 125.68 1960.52 124.88 1964.52 124.88C1972.36 124.88 1978.64 127.36 1983.36 132.32C1988.16 137.28 1990.56 144.2 1990.56 153.08C1990.56 158.92 1989.36 164.04 1986.96 168.44C1984.64 172.84 1981.2 176.28 1976.64 178.76C1972.16 181.24 1966.84 182.48 1960.68 182.48C1948.36 182.48 1939.8 178.64 1935 170.96C1930.2 163.2 1927.8 152.08 1927.8 137.6C1927.8 122.4 1930.32 111.12 1935.36 103.76C1940.48 96.32 1948.64 92.6 1959.84 92.6C1965.84 92.6 1970.88 93.8 1974.96 96.2C1979.12 98.52 1982.24 101.6 1984.32 105.44C1986.48 109.28 1987.76 113.48 1988.16 118.04H1969.08ZM1959.6 141.08C1956.16 141.08 1953.28 142.12 1950.96 144.2C1948.72 146.2 1947.6 149.08 1947.6 152.84C1947.6 156.68 1948.64 159.68 1950.72 161.84C1952.88 164 1955.92 165.08 1959.84 165.08C1963.36 165.08 1966.12 164.04 1968.12 161.96C1970.2 159.8 1971.24 156.88 1971.24 153.2C1971.24 149.44 1970.24 146.48 1968.24 144.32C1966.24 142.16 1963.36 141.08 1959.6 141.08Z" fill="#EBEBEB"/>
<rect x="1596" y="40" width="200" height="200" rx="20" fill="#EBEBEB"/>
<rect x="1596" y="40" width="200" height="200" rx="20" fill="#029347" fill-opacity="0.9"/>
<path d="M1676.89 134.96C1669.37 130.96 1665.61 124.68 1665.61 116.12C1665.61 111.8 1666.73 107.88 1668.97 104.36C1671.21 100.76 1674.61 97.92 1679.17 95.84C1683.73 93.68 1689.33 92.6 1695.97 92.6C1702.61 92.6 1708.17 93.68 1712.65 95.84C1717.21 97.92 1720.61 100.76 1722.85 104.36C1725.09 107.88 1726.21 111.8 1726.21 116.12C1726.21 120.44 1725.17 124.2 1723.09 127.4C1721.09 130.6 1718.37 133.12 1714.93 134.96C1719.25 137.04 1722.57 139.92 1724.89 143.6C1727.21 147.2 1728.37 151.44 1728.37 156.32C1728.37 162 1726.93 166.92 1724.05 171.08C1721.17 175.16 1717.25 178.28 1712.29 180.44C1707.41 182.6 1701.97 183.68 1695.97 183.68C1689.97 183.68 1684.49 182.6 1679.53 180.44C1674.65 178.28 1670.77 175.16 1667.89 171.08C1665.01 166.92 1663.57 162 1663.57 156.32C1663.57 151.36 1664.73 147.08 1667.05 143.48C1669.37 139.8 1672.65 136.96 1676.89 134.96ZM1706.29 119.24C1706.29 115.96 1705.33 113.44 1703.41 111.68C1701.57 109.84 1699.09 108.92 1695.97 108.92C1692.85 108.92 1690.33 109.84 1688.41 111.68C1686.57 113.52 1685.65 116.08 1685.65 119.36C1685.65 122.48 1686.61 124.96 1688.53 126.8C1690.45 128.56 1692.93 129.44 1695.97 129.44C1699.01 129.44 1701.49 128.52 1703.41 126.68C1705.33 124.84 1706.29 122.36 1706.29 119.24ZM1695.97 143.84C1692.21 143.84 1689.17 144.88 1686.85 146.96C1684.53 148.96 1683.37 151.76 1683.37 155.36C1683.37 158.72 1684.49 161.48 1686.73 163.64C1689.05 165.8 1692.13 166.88 1695.97 166.88C1699.81 166.88 1702.81 165.8 1704.97 163.64C1707.21 161.48 1708.33 158.72 1708.33 155.36C1708.33 151.84 1707.17 149.04 1704.85 146.96C1702.61 144.88 1699.65 143.84 1695.97 143.84Z" fill="#EBEBEB"/>
<rect x="1836" y="520" width="200" height="200" rx="20" fill="#EBEBEB"/>
<rect x="1836" y="520" width="200" height="200" rx="20" fill="#029347" fill-opacity="0.8"/>
<path d="M1901.27 646.4V629.84L1939.19 575.6H1962.11V628.64H1971.95V646.4H1962.11V662H1941.59V646.4H1901.27ZM1943.03 598.16L1922.87 628.64H1943.03V598.16Z" fill="#EBEBEB"/>
<path d="M938 367.5C931.096 367.5 925.5 373.096 925.5 380C925.5 386.904 931.096 392.5 938 392.5V367.5ZM1146.84 388.839C1151.72 383.957 1151.72 376.043 1146.84 371.161L1067.29 291.612C1062.41 286.73 1054.49 286.73 1049.61 291.612C1044.73 296.493 1044.73 304.408 1049.61 309.289L1120.32 380L1049.61 450.711C1044.73 455.592 1044.73 463.507 1049.61 468.388C1054.49 473.27 1062.41 473.27 1067.29 468.388L1146.84 388.839ZM938 392.5H1138V367.5H938V392.5Z" fill="#EBEBEB"/>
</svg>
