<svg width="2076" height="760" viewBox="0 0 2076 760" fill="none" xmlns="http://www.w3.org/2000/svg">
<rect width="760" height="760" rx="25" fill="#7D32ED"/>
<rect x="10" y="10" width="740" height="740" rx="20" fill="#121212"/>
<rect x="40" y="40" width="200" height="200" rx="20" fill="#191919"/>
<rect x="280" y="40" width="200" height="200" rx="20" fill="#191919"/>
<rect x="520" y="40" width="200" height="200" rx="20" fill="#191919"/>
<rect x="40" y="280" width="200" height="200" rx="20" fill="#191919"/>
<rect x="280" y="280" width="200" height="200" rx="20" fill="#191919"/>
<rect x="520" y="280" width="200" height="200" rx="20" fill="#191919"/>
<rect x="40" y="520" width="200" height="200" rx="20" fill="#191919"/>
<rect x="280" y="520" width="200" height="200" rx="20" fill="#191919"/>
<rect x="520" y="520" width="200" height="200" rx="20" fill="#191919"/>
<g filter="url(#filter0_d_5_245)">
<rect x="520" y="280" width="200" height="200" rx="20" fill="#EBEBEB"/>
<rect x="520" y="280" width="200" height="200" rx="20" fill="#7D32ED"/>
<path d="M555.515 359.12C555.835 350.56 558.635 343.96 563.915 339.32C569.195 334.68 576.355 332.36 585.395 332.36C591.395 332.36 596.515 333.4 600.755 335.48C605.075 337.56 608.315 340.4 610.475 344C612.715 347.6 613.835 351.64 613.835 356.12C613.835 361.4 612.515 365.72 609.875 369.08C607.235 372.36 604.155 374.6 600.635 375.8V376.28C605.195 377.8 608.795 380.32 611.435 383.84C614.075 387.36 615.395 391.88 615.395 397.4C615.395 402.36 614.235 406.76 611.915 410.6C609.675 414.36 606.355 417.32 601.955 419.48C597.635 421.64 592.475 422.72 586.475 422.72C576.875 422.72 569.195 420.36 563.435 415.64C557.755 410.92 554.755 403.8 554.435 394.28H574.355C574.435 397.8 575.435 400.6 577.355 402.68C579.275 404.68 582.075 405.68 585.755 405.68C588.875 405.68 591.275 404.8 592.955 403.04C594.715 401.2 595.595 398.8 595.595 395.84C595.595 392 594.355 389.24 591.875 387.56C589.475 385.8 585.595 384.92 580.235 384.92H576.395V368.24H580.235C584.315 368.24 587.595 367.56 590.075 366.2C592.635 364.76 593.915 362.24 593.915 358.64C593.915 355.76 593.115 353.52 591.515 351.92C589.915 350.32 587.715 349.52 584.915 349.52C581.875 349.52 579.595 350.44 578.075 352.28C576.635 354.12 575.795 356.4 575.555 359.12H555.515ZM626.731 405.56C629.451 403.4 630.691 402.4 630.451 402.56C638.291 396.08 644.451 390.76 648.931 386.6C653.491 382.44 657.331 378.08 660.451 373.52C663.571 368.96 665.131 364.52 665.131 360.2C665.131 356.92 664.371 354.36 662.851 352.52C661.331 350.68 659.051 349.76 656.011 349.76C652.971 349.76 650.571 350.92 648.811 353.24C647.131 355.48 646.291 358.68 646.291 362.84H626.491C626.651 356.04 628.091 350.36 630.811 345.8C633.611 341.24 637.251 337.88 641.731 335.72C646.291 333.56 651.331 332.48 656.851 332.48C666.371 332.48 673.531 334.92 678.331 339.8C683.211 344.68 685.651 351.04 685.651 358.88C685.651 367.44 682.731 375.4 676.891 382.76C671.051 390.04 663.611 397.16 654.571 404.12H686.971V420.8H626.731V405.56Z" fill="#EBEBEB"/>
</g>
<rect x="280" y="40" width="200" height="200" rx="20" fill="#EBEBEB"/>
<rect x="280" y="40" width="200" height="200" rx="20" fill="#029347" fill-opacity="0.8"/>
<path d="M345.275 166.4V149.84L383.195 95.6H406.115V148.64H415.955V166.4H406.115V182H385.595V166.4H345.275ZM387.035 118.16L366.875 148.64H387.035V118.16Z" fill="#EBEBEB"/>
<rect x="1316" width="760" height="760" rx="25" fill="#029347"/>
<rect x="1326" y="10" width="740" height="740" rx="20" fill="#121212"/>
<rect x="1356" y="40" width="200" height="200" rx="20" fill="#191919"/>
<rect x="1596" y="40" width="200" height="200" rx="20" fill="#191919"/>
<rect x="1836" y="40" width="200" height="200" rx="20" fill="#191919"/>
<rect x="1356" y="280" width="200" height="200" rx="20" fill="#191919"/>
<rect x="1596" y="280" width="200" height="200" rx="20" fill="#191919"/>
<rect x="1836" y="280" width="200" height="200" rx="20" fill="#191919"/>
<rect x="1356" y="520" width="200" height="200" rx="20" fill="#191919"/>
<rect x="1596" y="520" width="200" height="200" rx="20" fill="#191919"/>
<rect x="1836" y="520" width="200" height="200" rx="20" fill="#191919"/>
<g filter="url(#filter1_d_5_245)">
<rect x="1356" y="280" width="200" height="200" rx="20" fill="#EBEBEB"/>
<rect x="1356" y="280" width="200" height="200" rx="20" fill="#7D32ED"/>
<path d="M1425.91 358.04C1425.27 355.08 1424.15 352.88 1422.55 351.44C1420.95 349.92 1418.67 349.16 1415.71 349.16C1411.15 349.16 1407.87 351.16 1405.87 355.16C1403.87 359.08 1402.83 365.32 1402.75 373.88C1404.51 371.08 1407.03 368.88 1410.31 367.28C1413.67 365.68 1417.35 364.88 1421.35 364.88C1429.19 364.88 1435.47 367.36 1440.19 372.32C1444.99 377.28 1447.39 384.2 1447.39 393.08C1447.39 398.92 1446.19 404.04 1443.79 408.44C1441.47 412.84 1438.03 416.28 1433.47 418.76C1428.99 421.24 1423.67 422.48 1417.51 422.48C1405.19 422.48 1396.63 418.64 1391.83 410.96C1387.03 403.2 1384.63 392.08 1384.63 377.6C1384.63 362.4 1387.15 351.12 1392.19 343.76C1397.31 336.32 1405.47 332.6 1416.67 332.6C1422.67 332.6 1427.71 333.8 1431.79 336.2C1435.95 338.52 1439.07 341.6 1441.15 345.44C1443.31 349.28 1444.59 353.48 1444.99 358.04H1425.91ZM1416.43 381.08C1412.99 381.08 1410.11 382.12 1407.79 384.2C1405.55 386.2 1404.43 389.08 1404.43 392.84C1404.43 396.68 1405.47 399.68 1407.55 401.84C1409.71 404 1412.75 405.08 1416.67 405.08C1420.19 405.08 1422.95 404.04 1424.95 401.96C1427.03 399.8 1428.07 396.88 1428.07 393.2C1428.07 389.44 1427.07 386.48 1425.07 384.32C1423.07 382.16 1420.19 381.08 1416.43 381.08ZM1459.48 406.4V389.84L1497.4 335.6H1520.32V388.64H1530.16V406.4H1520.32V422H1499.8V406.4H1459.48ZM1501.24 358.16L1481.08 388.64H1501.24V358.16Z" fill="#EBEBEB"/>
</g>
<rect x="1356" y="40" width="200" height="200" rx="20" fill="#EBEBEB"/>
<rect x="1356" y="40" width="200" height="200" rx="20" fill="#029347" fill-opacity="0.9"/>
<path d="M1421.27 166.4V149.84L1459.19 95.6H1482.11V148.64H1491.95V166.4H1482.11V182H1461.59V166.4H1421.27ZM1463.03 118.16L1442.87 148.64H1463.03V118.16Z" fill="#EBEBEB"/>
<path d="M929.161 371.161C924.28 376.043 924.28 383.957 929.161 388.839L1008.71 468.388C1013.59 473.27 1021.51 473.27 1026.39 468.388C1031.27 463.507 1031.27 455.592 1026.39 450.711L955.678 380L1026.39 309.289C1031.27 304.408 1031.27 296.493 1026.39 291.612C1021.51 286.73 1013.59 286.73 1008.71 291.612L929.161 371.161ZM1138 392.5C1144.9 392.5 1150.5 386.904 1150.5 380C1150.5 373.096 1144.9 367.5 1138 367.5V392.5ZM938 392.5L1138 392.5V367.5L938 367.5V392.5Z" fill="#EBEBEB"/>
<g filter="url(#filter2_d_5_245)">
<rect x="40" y="280" width="200" height="200" rx="20" fill="#EBEBEB"/>
<rect x="40" y="280" width="200" height="200" rx="20" fill="#029347"/>
<path d="M75.5145 359.12C75.8345 350.56 78.6345 343.96 83.9145 339.32C89.1945 334.68 96.3545 332.36 105.395 332.36C111.395 332.36 116.515 333.4 120.755 335.48C125.075 337.56 128.315 340.4 130.475 344C132.715 347.6 133.835 351.64 133.835 356.12C133.835 361.4 132.515 365.72 129.875 369.08C127.235 372.36 124.155 374.6 120.635 375.8V376.28C125.195 377.8 128.795 380.32 131.435 383.84C134.075 387.36 135.395 391.88 135.395 397.4C135.395 402.36 134.235 406.76 131.915 410.6C129.675 414.36 126.355 417.32 121.955 419.48C117.635 421.64 112.475 422.72 106.475 422.72C96.8745 422.72 89.1945 420.36 83.4345 415.64C77.7545 410.92 74.7545 403.8 74.4345 394.28H94.3545C94.4345 397.8 95.4345 400.6 97.3545 402.68C99.2745 404.68 102.075 405.68 105.755 405.68C108.875 405.68 111.275 404.8 112.955 403.04C114.715 401.2 115.595 398.8 115.595 395.84C115.595 392 114.355 389.24 111.875 387.56C109.475 385.8 105.595 384.92 100.235 384.92H96.3945V368.24H100.235C104.315 368.24 107.595 367.56 110.075 366.2C112.635 364.76 113.915 362.24 113.915 358.64C113.915 355.76 113.115 353.52 111.515 351.92C109.915 350.32 107.715 349.52 104.915 349.52C101.875 349.52 99.5945 350.44 98.0745 352.28C96.6345 354.12 95.7945 356.4 95.5545 359.12H75.5145ZM146.731 405.56C149.451 403.4 150.691 402.4 150.451 402.56C158.291 396.08 164.451 390.76 168.931 386.6C173.491 382.44 177.331 378.08 180.451 373.52C183.571 368.96 185.131 364.52 185.131 360.2C185.131 356.92 184.371 354.36 182.851 352.52C181.331 350.68 179.051 349.76 176.011 349.76C172.971 349.76 170.571 350.92 168.811 353.24C167.131 355.48 166.291 358.68 166.291 362.84H146.491C146.651 356.04 148.091 350.36 150.811 345.8C153.611 341.24 157.251 337.88 161.731 335.72C166.291 333.56 171.331 332.48 176.851 332.48C186.371 332.48 193.531 334.92 198.331 339.8C203.211 344.68 205.651 351.04 205.651 358.88C205.651 367.44 202.731 375.4 196.891 382.76C191.051 390.04 183.611 397.16 174.571 404.12H206.971V420.8H146.731V405.56Z" fill="#EBEBEB"/>
</g>
<defs>
<filter id="filter0_d_5_245" x="495" y="255" width="250" height="250" filterUnits="userSpaceOnUse" color-interpolation-filters="sRGB">
<feFlood flood-opacity="0" result="BackgroundImageFix"/>
<feColorMatrix in="SourceAlpha" type="matrix" values="0 0 0 0 0 0 0 0 0 0 0 0 0 0 0 0 0 0 127 0" result="hardAlpha"/>
<feOffset/>
<feGaussianBlur stdDeviation="12.5"/>
<feComposite in2="hardAlpha" operator="out"/>
<feColorMatrix type="matrix" values="0 0 0 0 0.490196 0 0 0 0 0.196078 0 0 0 0 0.929412 0 0 0 1 0"/>
<feBlend mode="normal" in2="BackgroundImageFix" result="effect1_dropShadow_5_245"/>
<feBlend mode="normal" in="SourceGraphic" in2="effect1_dropShadow_5_245" result="shape"/>
</filter>
<filter id="filter1_d_5_245" x="1306" y="230" width="300" height="300" filterUnits="userSpaceOnUse" color-interpolation-filters="sRGB">
<feFlood flood-opacity="0" result="BackgroundImageFix"/>
<feColorMatrix in="SourceAlpha" type="matrix" values="0 0 0 0 0 0 0 0 0 0 0 0 0 0 0 0 0 0 127 0" result="hardAlpha"/>
<feOffset/>
<feGaussianBlur stdDeviation="25"/>
<feComposite in2="hardAlpha" operator="out"/>
<feColorMatrix type="matrix" values="0 0 0 0 0.490196 0 0 0 0 0.196078 0 0 0 0 0.929412 0 0 0 1 0"/>
<feBlend mode="normal" in2="BackgroundImageFix" result="effect1_dropShadow_5_245"/>
<feBlend mode="normal" in="SourceGraphic" in2="effect1_dropShadow_5_245" result="shape"/>
</filter>
<filter id="filter2_d_5_245" x="15" y="255" width="250" height="250" filterUnits="userSpaceOnUse" color-interpolation-filters="sRGB">
<feFlood flood-opacity="0" result="BackgroundImageFix"/>
<feColorMatrix in="SourceAlpha" type="matrix" values="0 0 0 0 0 0 0 0 0 0 0 0 0 0 0 0 0 0 127 0" result="hardAlpha"/>
<feOffset/>
<feGaussianBlur stdDeviation="12.5"/>
<feComposite in2="hardAlpha" operator="out"/>
<feColorMatrix type="matrix" values="0 0 0 0 0.00784314 0 0 0 0 0.576471 0 0 0 0 0.278431 0 0 0 1 0"/>
<feBlend mode="normal" in2="BackgroundImageFix" result="effect1_dropShadow_5_245"/>
<feBlend mode="normal" in="SourceGraphic" in2="effect1_dropShadow_5_245" result="shape"/>
</filter>
</defs>
</svg>
