<svg width="2076" height="760" viewBox="0 0 2076 760" fill="none" xmlns="http://www.w3.org/2000/svg">
<rect width="760" height="760" rx="25" fill="#7D32ED"/>
<rect x="10" y="10" width="740" height="740" rx="20" fill="#121212"/>
<rect x="40" y="40" width="200" height="200" rx="20" fill="#191919"/>
<rect x="280" y="40" width="200" height="200" rx="20" fill="#191919"/>
<rect x="520" y="40" width="200" height="200" rx="20" fill="#191919"/>
<rect x="40" y="280" width="200" height="200" rx="20" fill="#191919"/>
<rect x="280" y="280" width="200" height="200" rx="20" fill="#191919"/>
<rect x="520" y="280" width="200" height="200" rx="20" fill="#191919"/>
<rect x="40" y="520" width="200" height="200" rx="20" fill="#191919"/>
<rect x="280" y="520" width="200" height="200" rx="20" fill="#191919"/>
<rect x="520" y="520" width="200" height="200" rx="20" fill="#191919"/>
<rect x="280" y="520" width="200" height="200" rx="20" fill="#EBEBEB"/>
<rect x="280" y="520" width="200" height="200" rx="20" fill="#7D32ED" fill-opacity="0.8"/>
<path d="M345.275 646.4V629.84L383.195 575.6H406.115V628.64H415.955V646.4H406.115V662H385.595V646.4H345.275ZM387.035 598.16L366.875 628.64H387.035V598.16Z" fill="#EBEBEB"/>
<rect x="40" y="280" width="200" height="200" rx="20" fill="#EBEBEB"/>
<rect x="40" y="280" width="200" height="200" rx="20" fill="#029347" fill-opacity="0.9"/>
<path d="M120.894 374.96C113.374 370.96 109.614 364.68 109.614 356.12C109.614 351.8 110.734 347.88 112.974 344.36C115.214 340.76 118.614 337.92 123.174 335.84C127.734 333.68 133.334 332.6 139.974 332.6C146.614 332.6 152.174 333.68 156.654 335.84C161.214 337.92 164.614 340.76 166.854 344.36C169.094 347.88 170.214 351.8 170.214 356.12C170.214 360.44 169.174 364.2 167.094 367.4C165.094 370.6 162.374 373.12 158.934 374.96C163.254 377.04 166.574 379.92 168.894 383.6C171.214 387.2 172.374 391.44 172.374 396.32C172.374 402 170.934 406.92 168.054 411.08C165.174 415.16 161.254 418.28 156.294 420.44C151.414 422.6 145.974 423.68 139.974 423.68C133.974 423.68 128.494 422.6 123.534 420.44C118.654 418.28 114.774 415.16 111.894 411.08C109.014 406.92 107.574 402 107.574 396.32C107.574 391.36 108.734 387.08 111.054 383.48C113.374 379.8 116.654 376.96 120.894 374.96ZM150.294 359.24C150.294 355.96 149.334 353.44 147.414 351.68C145.574 349.84 143.094 348.92 139.974 348.92C136.854 348.92 134.334 349.84 132.414 351.68C130.574 353.52 129.654 356.08 129.654 359.36C129.654 362.48 130.614 364.96 132.534 366.8C134.454 368.56 136.934 369.44 139.974 369.44C143.014 369.44 145.494 368.52 147.414 366.68C149.334 364.84 150.294 362.36 150.294 359.24ZM139.974 383.84C136.214 383.84 133.174 384.88 130.854 386.96C128.534 388.96 127.374 391.76 127.374 395.36C127.374 398.72 128.494 401.48 130.734 403.64C133.054 405.8 136.134 406.88 139.974 406.88C143.814 406.88 146.814 405.8 148.974 403.64C151.214 401.48 152.334 398.72 152.334 395.36C152.334 391.84 151.174 389.04 148.854 386.96C146.614 384.88 143.654 383.84 139.974 383.84Z" fill="#EBEBEB"/>
<rect x="280" y="40" width="200" height="200" rx="20" fill="#EBEBEB"/>
<rect x="280" y="40" width="200" height="200" rx="20" fill="#029347" fill-opacity="0.8"/>
<path d="M345.275 166.4V149.84L383.195 95.6H406.115V148.64H415.955V166.4H406.115V182H385.595V166.4H345.275ZM387.035 118.16L366.875 148.64H387.035V118.16Z" fill="#EBEBEB"/>
<rect x="1316" width="760" height="760" rx="25" fill="#029347"/>
<rect x="1326" y="10" width="740" height="740" rx="20" fill="#121212"/>
<rect x="1356" y="40" width="200" height="200" rx="20" fill="#191919"/>
<rect x="1596" y="40" width="200" height="200" rx="20" fill="#191919"/>
<rect x="1836" y="40" width="200" height="200" rx="20" fill="#191919"/>
<rect x="1356" y="280" width="200" height="200" rx="20" fill="#191919"/>
<rect x="1596" y="280" width="200" height="200" rx="20" fill="#191919"/>
<rect x="1836" y="280" width="200" height="200" rx="20" fill="#191919"/>
<rect x="1356" y="520" width="200" height="200" rx="20" fill="#191919"/>
<rect x="1596" y="520" width="200" height="200" rx="20" fill="#191919"/>
<rect x="1836" y="520" width="200" height="200" rx="20" fill="#191919"/>
<rect x="1596" y="40" width="200" height="200" rx="20" fill="#EBEBEB"/>
<rect x="1596" y="40" width="200" height="200" rx="20" fill="#7D32ED" fill-opacity="0.9"/>
<path d="M1676.89 134.96C1669.37 130.96 1665.61 124.68 1665.61 116.12C1665.61 111.8 1666.73 107.88 1668.97 104.36C1671.21 100.76 1674.61 97.92 1679.17 95.84C1683.73 93.68 1689.33 92.6 1695.97 92.6C1702.61 92.6 1708.17 93.68 1712.65 95.84C1717.21 97.92 1720.61 100.76 1722.85 104.36C1725.09 107.88 1726.21 111.8 1726.21 116.12C1726.21 120.44 1725.17 124.2 1723.09 127.4C1721.09 130.6 1718.37 133.12 1714.93 134.96C1719.25 137.04 1722.57 139.92 1724.89 143.6C1727.21 147.2 1728.37 151.44 1728.37 156.32C1728.37 162 1726.93 166.92 1724.05 171.08C1721.17 175.16 1717.25 178.28 1712.29 180.44C1707.41 182.6 1701.97 183.68 1695.97 183.68C1689.97 183.68 1684.49 182.6 1679.53 180.44C1674.65 178.28 1670.77 175.16 1667.89 171.08C1665.01 166.92 1663.57 162 1663.57 156.32C1663.57 151.36 1664.73 147.08 1667.05 143.48C1669.37 139.8 1672.65 136.96 1676.89 134.96ZM1706.29 119.24C1706.29 115.96 1705.33 113.44 1703.41 111.68C1701.57 109.84 1699.09 108.92 1695.97 108.92C1692.85 108.92 1690.33 109.84 1688.41 111.68C1686.57 113.52 1685.65 116.08 1685.65 119.36C1685.65 122.48 1686.61 124.96 1688.53 126.8C1690.45 128.56 1692.93 129.44 1695.97 129.44C1699.01 129.44 1701.49 128.52 1703.41 126.68C1705.33 124.84 1706.29 122.36 1706.29 119.24ZM1695.97 143.84C1692.21 143.84 1689.17 144.88 1686.85 146.96C1684.53 148.96 1683.37 151.76 1683.37 155.36C1683.37 158.72 1684.49 161.48 1686.73 163.64C1689.05 165.8 1692.13 166.88 1695.97 166.88C1699.81 166.88 1702.81 165.8 1704.97 163.64C1707.21 161.48 1708.33 158.72 1708.33 155.36C1708.33 151.84 1707.17 149.04 1704.85 146.96C1702.61 144.88 1699.65 143.84 1695.97 143.84Z" fill="#EBEBEB"/>
<rect x="1356" y="40" width="200" height="200" rx="20" fill="#EBEBEB"/>
<rect x="1356" y="40" width="200" height="200" rx="20" fill="#029347" fill-opacity="0.9"/>
<path d="M1436.89 134.96C1429.37 130.96 1425.61 124.68 1425.61 116.12C1425.61 111.8 1426.73 107.88 1428.97 104.36C1431.21 100.76 1434.61 97.92 1439.17 95.84C1443.73 93.68 1449.33 92.6 1455.97 92.6C1462.61 92.6 1468.17 93.68 1472.65 95.84C1477.21 97.92 1480.61 100.76 1482.85 104.36C1485.09 107.88 1486.21 111.8 1486.21 116.12C1486.21 120.44 1485.17 124.2 1483.09 127.4C1481.09 130.6 1478.37 133.12 1474.93 134.96C1479.25 137.04 1482.57 139.92 1484.89 143.6C1487.21 147.2 1488.37 151.44 1488.37 156.32C1488.37 162 1486.93 166.92 1484.05 171.08C1481.17 175.16 1477.25 178.28 1472.29 180.44C1467.41 182.6 1461.97 183.68 1455.97 183.68C1449.97 183.68 1444.49 182.6 1439.53 180.44C1434.65 178.28 1430.77 175.16 1427.89 171.08C1425.01 166.92 1423.57 162 1423.57 156.32C1423.57 151.36 1424.73 147.08 1427.05 143.48C1429.37 139.8 1432.65 136.96 1436.89 134.96ZM1466.29 119.24C1466.29 115.96 1465.33 113.44 1463.41 111.68C1461.57 109.84 1459.09 108.92 1455.97 108.92C1452.85 108.92 1450.33 109.84 1448.41 111.68C1446.57 113.52 1445.65 116.08 1445.65 119.36C1445.65 122.48 1446.61 124.96 1448.53 126.8C1450.45 128.56 1452.93 129.44 1455.97 129.44C1459.01 129.44 1461.49 128.52 1463.41 126.68C1465.33 124.84 1466.29 122.36 1466.29 119.24ZM1455.97 143.84C1452.21 143.84 1449.17 144.88 1446.85 146.96C1444.53 148.96 1443.37 151.76 1443.37 155.36C1443.37 158.72 1444.49 161.48 1446.73 163.64C1449.05 165.8 1452.13 166.88 1455.97 166.88C1459.81 166.88 1462.81 165.8 1464.97 163.64C1467.21 161.48 1468.33 158.72 1468.33 155.36C1468.33 151.84 1467.17 149.04 1464.85 146.96C1462.61 144.88 1459.65 143.84 1455.97 143.84Z" fill="#EBEBEB"/>
<path d="M1046.84 271.161C1041.96 266.28 1034.04 266.28 1029.16 271.161L949.612 350.711C944.73 355.592 944.73 363.507 949.612 368.388C954.493 373.27 962.408 373.27 967.289 368.388L1038 297.678L1108.71 368.388C1113.59 373.27 1121.51 373.27 1126.39 368.388C1131.27 363.507 1131.27 355.592 1126.39 350.711L1046.84 271.161ZM1025.5 480C1025.5 486.904 1031.1 492.5 1038 492.5C1044.9 492.5 1050.5 486.904 1050.5 480H1025.5ZM1025.5 280V480H1050.5V280H1025.5Z" fill="#EBEBEB"/>
</svg>
